<svg xmlns="http://www.w3.org/2000/svg" width="28" height="28" viewBox="0 0 28 28">
  <metadata><?xpacket begin="﻿" id="W5M0MpCehiHzreSzNTczkc9d"?>
<x:xmpmeta xmlns:x="adobe:ns:meta/" x:xmptk="Adobe XMP Core 5.6-c138 79.159824, 2016/09/14-01:09:01        ">
   <rdf:RDF xmlns:rdf="http://www.w3.org/1999/02/22-rdf-syntax-ns#">
      <rdf:Description rdf:about=""/>
   </rdf:RDF>
</x:xmpmeta>
                                                                                                    
                                                                                                    
                                                                                                    
                                                                                                    
                                                                                                    
                                                                                                    
                                                                                                    
                                                                                                    
                                                                                                    
                                                                                                    
                                                                                                    
                                                                                                    
                                                                                                    
                                                                                                    
                                                                                                    
                                                                                                    
                                                                                                    
                                                                                                    
                                                                                                    
                                                                                                    
                           
<?xpacket end="w"?></metadata>
<defs>
    <style>
      .cls-1 {
        fill: #4395e1;
        fill-rule: evenodd;
      }
    </style>
  </defs>
  <path class="cls-1" d="M20,6A14,14,0,1,1,6,20,14,14,0,0,1,20,6ZM10.084,21.515a0.587,0.587,0,0,1-.031-0.581l1.225-2.395a0.632,0.632,0,0,1,.56-0.335h6.113a0.627,0.627,0,0,1,.529.281,0.587,0.587,0,0,1,.031.581l-1.225,2.395a0.623,0.623,0,0,1-.553.335H10.613A0.627,0.627,0,0,1,10.084,21.515Zm12.164,4.472H11.838a0.627,0.627,0,0,1-.528-0.281,0.587,0.587,0,0,1-.031-0.581L12.5,22.73a0.622,0.622,0,0,1,.553-0.335h9.191l2.083-4.783-6.38-.006H15.507a0.627,0.627,0,0,1-.528-0.281,0.587,0.587,0,0,1-.031-0.581l1.225-2.395a0.625,0.625,0,0,1,.56-0.335h7.611a3.683,3.683,0,0,1,3.072,1.617,3.509,3.509,0,0,1,.311,3.388l-2.1,4.789A3.679,3.679,0,0,1,22.248,25.987Z" transform="translate(-6 -6)"/>
</svg>
