<svg xmlns="http://www.w3.org/2000/svg" xmlns:xlink="http://www.w3.org/1999/xlink" preserveAspectRatio="xMidYMid" width="20" height="18" viewBox="0 0 20 18">
  <defs>
    <style>
      .cls-1 {
        fill: #a9bbce;
        fill-rule: evenodd;
      }
    </style>
  </defs>
  <path d="M19.817,5.147 L15.443,9.431 L14.562,8.568 L17.868,5.331 L2.500,5.331 C2.300,5.331 1.250,5.453 1.250,7.167 L1.250,9.003 L-0.000,9.003 L-0.000,7.167 C-0.000,4.719 1.637,4.107 2.500,4.107 L17.868,4.107 L14.555,0.869 L15.443,-0.000 L19.817,4.284 C20.060,4.523 20.060,4.908 19.817,5.147 ZM4.556,8.568 L5.437,9.437 L2.131,12.675 L17.499,12.675 C17.699,12.675 18.749,12.553 18.749,10.839 L18.749,9.003 L19.999,9.003 L19.999,10.839 C19.999,13.287 18.361,13.899 17.499,13.899 L2.131,13.899 L5.437,17.137 L4.556,18.000 L0.181,13.716 C-0.061,13.477 -0.061,13.091 0.181,12.853 L4.556,8.568 Z" class="cls-1"/>
</svg>
