<svg xmlns="http://www.w3.org/2000/svg" xmlns:xlink="http://www.w3.org/1999/xlink" preserveAspectRatio="xMidYMid" width="21" height="19" viewBox="0 0 21 19">
  <defs>
    <style>
      .cls-1 {
        fill: #3c8fdd;
        fill-rule: evenodd;
      }
    </style>
  </defs>
  <path d="M12.875,19.000 L12.875,16.743 C16.189,16.009 18.743,13.071 18.743,9.567 C18.743,5.512 15.380,2.214 11.248,2.214 C7.669,2.214 4.666,4.656 3.925,7.977 L5.544,7.977 L2.764,12.544 L0.063,7.977 L1.629,7.977 C2.406,3.480 6.420,-0.000 11.243,-0.000 C16.619,-0.000 21.000,4.291 21.000,9.566 C21.000,14.298 17.459,18.238 12.875,19.000 ZM1.803,13.682 C2.386,13.682 2.841,13.823 3.167,14.104 C3.494,14.385 3.657,14.769 3.657,15.257 C3.657,15.586 3.570,15.875 3.396,16.128 C3.223,16.380 2.903,16.753 2.437,17.251 L1.719,17.999 L1.730,18.009 L3.779,18.009 L3.779,18.978 L0.112,18.978 L0.112,18.175 L1.804,16.417 C2.020,16.174 2.167,15.957 2.269,15.767 C2.371,15.576 2.422,15.411 2.422,15.271 C2.422,15.070 2.371,14.912 2.267,14.793 C2.164,14.674 2.010,14.617 1.803,14.617 C1.619,14.617 1.474,14.698 1.368,14.852 C1.262,15.006 1.210,15.173 1.210,15.449 L0.008,15.449 L0.000,15.418 C-0.012,14.937 0.148,14.519 0.481,14.185 C0.814,13.850 1.254,13.682 1.803,13.682 ZM5.965,13.789 L7.163,13.789 L7.163,16.971 L7.728,16.971 L7.728,17.871 L7.163,17.871 L7.163,18.978 L5.965,18.978 L5.965,17.871 L3.884,17.871 L3.824,17.130 L5.965,13.769 L5.965,13.789 ZM5.822,15.485 L4.911,16.971 L5.965,16.971 L5.965,15.327 L5.930,15.329 L5.822,15.485 ZM9.984,4.518 L11.112,4.518 L11.112,9.707 L14.074,9.707 L14.074,10.814 L9.984,10.814 L9.984,4.518 ZM9.490,15.573 C9.561,15.399 9.739,15.264 9.910,15.168 C10.082,15.071 10.255,15.023 10.462,15.023 C10.870,15.023 11.186,15.162 11.419,15.441 C11.586,15.641 11.685,15.920 11.732,16.277 C11.751,16.419 11.747,16.572 11.747,16.738 L11.747,18.978 L10.977,18.978 L10.548,18.978 L10.548,16.731 C10.548,16.436 10.505,16.232 10.414,16.120 C10.323,16.008 10.185,15.952 9.998,15.952 C9.879,15.952 9.783,15.969 9.696,16.004 C9.608,16.038 9.490,16.087 9.490,16.149 L9.490,18.978 L8.221,18.978 L8.221,13.720 L9.490,13.720 L9.490,15.573 Z" class="cls-1"/>
</svg>
