<svg xmlns="http://www.w3.org/2000/svg" width="28" height="28" viewBox="0 0 28 28">
  <metadata><?xpacket begin="﻿" id="W5M0MpCehiHzreSzNTczkc9d"?>
<x:xmpmeta xmlns:x="adobe:ns:meta/" x:xmptk="Adobe XMP Core 5.6-c138 79.159824, 2016/09/14-01:09:01        ">
   <rdf:RDF xmlns:rdf="http://www.w3.org/1999/02/22-rdf-syntax-ns#">
      <rdf:Description rdf:about=""/>
   </rdf:RDF>
</x:xmpmeta>
                                                                                                    
                                                                                                    
                                                                                                    
                                                                                                    
                                                                                                    
                                                                                                    
                                                                                                    
                                                                                                    
                                                                                                    
                                                                                                    
                                                                                                    
                                                                                                    
                                                                                                    
                                                                                                    
                                                                                                    
                                                                                                    
                                                                                                    
                                                                                                    
                                                                                                    
                                                                                                    
                           
<?xpacket end="w"?></metadata>
<defs>
    <style>
      .cls-1 {
        fill: #f5c33d;
        fill-rule: evenodd;
      }
    </style>
  </defs>
  <path class="cls-1" d="M20,6A14,14,0,1,1,6,20,14,14,0,0,1,20,6Zm5.644,15.576a2.537,2.537,0,0,0-.974-0.951,5.031,5.031,0,0,0-1.227-.444,3.671,3.671,0,0,0,1.2-.636,2.7,2.7,0,0,0,.7-0.886,2.416,2.416,0,0,0,.242-1.06,2.386,2.386,0,0,0-.457-1.412,2.88,2.88,0,0,0-1.309-.987,4.788,4.788,0,0,0-1.209-.279V13h-1.6v1.856H19.986V13h-1.6v1.856H14.994v1.562h0.45a1.542,1.542,0,0,1,.61.081,0.476,0.476,0,0,1,.224.218,1.844,1.844,0,0,1,.066.639v6.294a1.879,1.879,0,0,1-.066.635,0.447,0.447,0,0,1-.224.218,1.61,1.61,0,0,1-.61.078h-0.45v1.562h3.393V28h1.6V26.143h1.028V28h1.6V26.051a5.447,5.447,0,0,0,1.3-.3,3.4,3.4,0,0,0,1.549-1.154A2.758,2.758,0,0,0,26,22.938,2.638,2.638,0,0,0,25.644,21.576Zm-6.475-4.9h1.252a5.834,5.834,0,0,1,1.523.134,1.222,1.222,0,0,1,.651.449,1.281,1.281,0,0,1,.225.761,1.252,1.252,0,0,1-.238.756,1.4,1.4,0,0,1-.708.49,4.8,4.8,0,0,1-1.454.162H19.169V16.678Zm3.537,6.974a1.567,1.567,0,0,1-.813.554,4.582,4.582,0,0,1-1.2.134H19.855a1.661,1.661,0,0,1-.511-0.045,0.264,0.264,0,0,1-.135-0.157,2.981,2.981,0,0,1-.041-0.607V21.087h1.478a4.4,4.4,0,0,1,1.446.178,1.438,1.438,0,0,1,.71.526,1.475,1.475,0,0,1,.237.85A1.568,1.568,0,0,1,22.706,23.651Z" transform="translate(-6 -6)"/>
</svg>
