<svg xmlns="http://www.w3.org/2000/svg" xmlns:xlink="http://www.w3.org/1999/xlink" preserveAspectRatio="xMidYMid" width="13" height="14" viewBox="0 0 13 14">
  <defs>
    <style>
      .cls-1 {
        fill: #a3a8ac;
        filter: url(#color-overlay-1);
        fill-rule: evenodd;
      }
    </style>

    <filter id="color-overlay-1" filterUnits="userSpaceOnUse">
      <feFlood flood-color="#c1c3c5"/>
      <feComposite operator="in" in2="SourceGraphic"/>
      <feBlend in2="SourceGraphic" result="solidFill"/>
    </filter>
  </defs>
  <path d="M2.600,4.375 L1.733,4.375 L1.733,5.250 L2.600,5.250 L2.600,4.375 ZM6.067,3.500 L5.200,3.500 L5.200,4.375 L6.067,4.375 L6.067,3.500 ZM7.800,3.500 L6.933,3.500 L6.933,4.375 L7.800,4.375 L7.800,3.500 ZM9.533,3.500 L8.667,3.500 L8.667,4.375 L9.533,4.375 L9.533,3.500 ZM6.067,1.750 L5.200,1.750 L5.200,2.625 L6.067,2.625 L6.067,1.750 ZM7.800,1.750 L6.933,1.750 L6.933,2.625 L7.800,2.625 L7.800,1.750 ZM9.533,1.750 L8.667,1.750 L8.667,2.625 L9.533,2.625 L9.533,1.750 ZM6.067,7.000 L5.200,7.000 L5.200,7.875 L6.067,7.875 L6.067,7.000 ZM7.800,7.000 L6.933,7.000 L6.933,7.875 L7.800,7.875 L7.800,7.000 ZM9.533,7.000 L8.667,7.000 L8.667,7.875 L9.533,7.875 L9.533,7.000 ZM6.067,8.750 L5.200,8.750 L5.200,9.625 L6.067,9.625 L6.067,8.750 ZM9.533,8.750 L8.667,8.750 L8.667,9.625 L9.533,9.625 L9.533,8.750 ZM6.067,10.500 L5.200,10.500 L5.200,11.375 L6.067,11.375 L6.067,10.500 ZM9.533,10.500 L8.667,10.500 L8.667,11.375 L9.533,11.375 L9.533,10.500 ZM6.067,5.250 L5.200,5.250 L5.200,6.125 L6.067,6.125 L6.067,5.250 ZM7.800,5.250 L6.933,5.250 L6.933,6.125 L7.800,6.125 L7.800,5.250 ZM9.533,5.250 L8.667,5.250 L8.667,6.125 L9.533,6.125 L9.533,5.250 ZM2.600,6.125 L1.733,6.125 L1.733,7.000 L2.600,7.000 L2.600,6.125 ZM2.600,7.875 L1.733,7.875 L1.733,8.750 L2.600,8.750 L2.600,7.875 ZM2.600,9.625 L1.733,9.625 L1.733,10.500 L2.600,10.500 L2.600,9.625 ZM2.600,11.375 L1.733,11.375 L1.733,12.250 L2.600,12.250 L2.600,11.375 ZM7.800,8.750 L6.933,8.750 L6.933,9.625 L7.800,9.625 L7.800,8.750 ZM12.133,6.125 L11.267,6.125 L11.267,0.875 C11.267,0.391 10.879,-0.000 10.400,-0.000 L4.333,-0.000 C3.854,-0.000 3.467,0.391 3.467,0.875 L3.467,2.625 L0.867,2.625 C0.388,2.625 -0.000,3.016 -0.000,3.500 L-0.000,13.125 C-0.000,13.609 0.388,14.000 0.867,14.000 L12.133,14.000 C12.612,14.000 13.000,13.609 13.000,13.125 L13.000,7.000 C13.000,6.516 12.612,6.125 12.133,6.125 ZM3.467,13.125 L0.867,13.125 L0.867,3.500 L3.467,3.500 L3.467,13.125 ZM10.400,13.125 L7.800,13.125 L7.800,10.500 L6.933,10.500 L6.933,13.125 L4.333,13.125 L4.333,0.875 L10.400,0.875 L10.400,13.125 ZM12.133,13.125 L11.267,13.125 L11.267,12.250 L12.133,12.250 L12.133,13.125 ZM12.133,11.375 L11.267,11.375 L11.267,10.500 L12.133,10.500 L12.133,11.375 ZM12.133,9.625 L11.267,9.625 L11.267,8.750 L12.133,8.750 L12.133,9.625 ZM12.133,7.875 L11.267,7.875 L11.267,7.000 L12.133,7.000 L12.133,7.875 Z" class="cls-1"/>
</svg>
