<svg xmlns="http://www.w3.org/2000/svg" xmlns:xlink="http://www.w3.org/1999/xlink" preserveAspectRatio="xMidYMid" width="13" height="13" viewBox="0 0 13 13">
  <defs>
    <style>
      .cls-1 {
        fill: #a7abaf;
        filter: url(#color-overlay-1);
        fill-rule: evenodd;
      }
    </style>

    <filter id="color-overlay-1" filterUnits="userSpaceOnUse">
      <feFlood flood-color="#c1c3c5"/>
      <feComposite operator="in" in2="SourceGraphic"/>
      <feBlend in2="SourceGraphic" result="solidFill"/>
    </filter>
  </defs>
  <path d="M6.500,13.000 C2.907,13.000 -0.000,10.092 -0.000,6.500 C-0.000,2.907 2.908,-0.000 6.500,-0.000 C10.093,-0.000 13.000,2.908 13.000,6.500 C13.000,10.093 10.092,13.000 6.500,13.000 ZM11.408,8.954 C11.755,8.262 11.951,7.500 11.980,6.708 C11.410,6.930 10.689,7.075 9.853,6.961 C9.230,6.876 8.957,6.999 8.906,7.045 C8.906,7.123 9.014,7.407 9.528,7.873 C10.120,8.409 10.799,8.701 11.408,8.954 ZM6.500,1.016 C4.347,1.016 2.487,2.252 1.588,4.055 C2.196,4.854 2.766,5.679 3.427,6.380 C4.043,7.035 4.604,7.377 5.140,7.427 C5.293,7.441 5.300,7.432 5.367,7.342 C5.681,6.921 5.599,6.255 5.477,5.551 C5.319,4.632 5.256,3.683 5.862,2.971 C6.074,2.722 6.334,2.557 6.615,2.493 C6.874,2.434 7.117,2.469 7.324,2.506 C8.524,2.721 9.682,3.175 10.754,3.038 C9.734,1.790 8.210,1.016 6.500,1.016 ZM11.360,3.954 C9.869,4.332 8.490,3.746 7.145,3.506 C7.036,3.486 6.914,3.467 6.839,3.483 C6.776,3.498 6.702,3.551 6.636,3.629 C6.300,4.023 6.362,4.703 6.478,5.378 C6.599,6.082 6.782,7.145 6.180,7.951 C5.888,8.341 5.534,8.483 5.046,8.438 C4.253,8.365 3.481,7.920 2.688,7.077 C2.132,6.487 1.653,5.840 1.172,5.193 C1.069,5.616 1.016,6.054 1.016,6.500 C1.016,9.531 3.469,11.984 6.500,11.984 C8.256,11.984 9.836,11.165 10.861,9.826 C10.238,9.564 9.508,9.225 8.846,8.625 C8.261,8.095 7.648,7.335 7.983,6.616 C8.243,6.057 8.975,5.816 9.990,5.955 C10.782,6.063 11.442,5.864 11.915,5.626 C11.822,5.039 11.634,4.476 11.360,3.954 ZM8.550,9.943 C8.582,10.095 8.591,10.396 8.298,10.700 C8.086,10.919 7.710,11.168 7.340,11.334 C6.903,11.529 6.383,11.650 5.936,11.483 C5.296,11.244 5.168,10.585 5.149,10.213 C5.120,9.660 5.275,9.260 5.611,9.023 C6.180,8.621 7.028,8.885 7.860,9.231 C8.243,9.390 8.488,9.643 8.550,9.943 ZM6.565,9.864 C6.304,9.811 6.213,9.845 6.198,9.852 C6.191,9.864 6.151,9.939 6.163,10.160 C6.167,10.237 6.188,10.493 6.292,10.532 C6.520,10.617 7.069,10.376 7.397,10.138 C7.044,9.995 6.778,9.907 6.565,9.864 Z" class="cls-1"/>
</svg>
