<svg xmlns="http://www.w3.org/2000/svg" xmlns:xlink="http://www.w3.org/1999/xlink" preserveAspectRatio="xMidYMid" width="13" height="13" viewBox="0 0 13 13">
  <defs>
    <style>
      .cls-1 {
        fill: #a8adb1;
        filter: url(#color-overlay-1);
        fill-rule: evenodd;
      }
    </style>

    <filter id="color-overlay-1" filterUnits="userSpaceOnUse">
      <feFlood flood-color="#c1c3c5"/>
      <feComposite operator="in" in2="SourceGraphic"/>
      <feBlend in2="SourceGraphic" result="solidFill"/>
    </filter>
  </defs>
  <path d="M11.477,13.000 L1.523,13.000 C0.683,13.000 -0.000,12.317 -0.000,11.477 L-0.000,2.539 C-0.000,1.699 0.683,1.016 1.523,1.016 L2.133,1.016 L2.133,-0.000 L3.148,-0.000 L3.148,1.016 L9.852,1.016 L9.852,-0.000 L10.867,-0.000 L10.867,1.016 L11.477,1.016 C12.317,1.016 13.000,1.699 13.000,2.539 L13.000,11.477 C13.000,12.317 12.317,13.000 11.477,13.000 ZM11.984,2.539 C11.984,2.259 11.757,2.031 11.477,2.031 L10.867,2.031 L10.867,3.047 L9.852,3.047 L9.852,2.031 L3.148,2.031 L3.148,3.047 L2.133,3.047 L2.133,2.031 L1.523,2.031 C1.243,2.031 1.016,2.259 1.016,2.539 L1.016,3.758 L11.984,3.758 L11.984,2.539 ZM11.984,4.773 L1.016,4.773 L1.016,11.477 C1.016,11.757 1.243,11.984 1.523,11.984 L11.477,11.984 C11.757,11.984 11.984,11.757 11.984,11.477 L11.984,4.773 ZM10.055,7.871 L11.070,7.871 L11.070,8.887 L10.055,8.887 L10.055,7.871 ZM10.055,5.840 L11.070,5.840 L11.070,6.855 L10.055,6.855 L10.055,5.840 ZM8.023,9.902 L9.039,9.902 L9.039,10.918 L8.023,10.918 L8.023,9.902 ZM8.023,7.871 L9.039,7.871 L9.039,8.887 L8.023,8.887 L8.023,7.871 ZM8.023,5.840 L9.039,5.840 L9.039,6.855 L8.023,6.855 L8.023,5.840 ZM5.992,9.902 L7.008,9.902 L7.008,10.918 L5.992,10.918 L5.992,9.902 ZM5.992,7.871 L7.008,7.871 L7.008,8.887 L5.992,8.887 L5.992,7.871 ZM5.992,5.840 L7.008,5.840 L7.008,6.855 L5.992,6.855 L5.992,5.840 ZM3.961,9.902 L4.976,9.902 L4.976,10.918 L3.961,10.918 L3.961,9.902 ZM3.961,7.871 L4.976,7.871 L4.976,8.887 L3.961,8.887 L3.961,7.871 ZM3.961,5.840 L4.976,5.840 L4.976,6.855 L3.961,6.855 L3.961,5.840 ZM1.930,9.902 L2.945,9.902 L2.945,10.918 L1.930,10.918 L1.930,9.902 ZM1.930,7.871 L2.945,7.871 L2.945,8.887 L1.930,8.887 L1.930,7.871 ZM1.930,5.840 L2.945,5.840 L2.945,6.855 L1.930,6.855 L1.930,5.840 Z" class="cls-1"/>
</svg>
