<svg xmlns="http://www.w3.org/2000/svg" width="28" height="28" viewBox="0 0 28 28">
  <metadata><?xpacket begin="﻿" id="W5M0MpCehiHzreSzNTczkc9d"?>
<x:xmpmeta xmlns:x="adobe:ns:meta/" x:xmptk="Adobe XMP Core 5.6-c138 79.159824, 2016/09/14-01:09:01        ">
   <rdf:RDF xmlns:rdf="http://www.w3.org/1999/02/22-rdf-syntax-ns#">
      <rdf:Description rdf:about=""/>
   </rdf:RDF>
</x:xmpmeta>
                                                                                                    
                                                                                                    
                                                                                                    
                                                                                                    
                                                                                                    
                                                                                                    
                                                                                                    
                                                                                                    
                                                                                                    
                                                                                                    
                                                                                                    
                                                                                                    
                                                                                                    
                                                                                                    
                                                                                                    
                                                                                                    
                                                                                                    
                                                                                                    
                                                                                                    
                                                                                                    
                           
<?xpacket end="w"?></metadata>
<defs>
    <style>
      .cls-1 {
        fill: #3c8fdd;
        fill-rule: evenodd;
      }
    </style>
  </defs>
  <path id="Ellipse_4_copy" data-name="Ellipse 4 copy" class="cls-1" d="M14,0A14,14,0,1,1,0,14,14,14,0,0,1,14,0Zm2.147,13.722a17.788,17.788,0,0,0-1.888-.941,4.147,4.147,0,0,1-1.036-.639,1.036,1.036,0,0,1,.223-1.766,1.678,1.678,0,0,1,.635-0.144,4.441,4.441,0,0,1,2.385.52c0.376,0.2.5,0.137,0.628-.295,0.134-.456.246-0.92,0.37-1.38a0.494,0.494,0,0,0-.284-0.642,5.656,5.656,0,0,0-1.505-.5c-0.682-.116-0.682-0.119-0.686-0.874C14.986,6,14.986,6,14.017,6c-0.14,0-.281,0-0.421,0-0.453.014-.529,0.1-0.542,0.6-0.006.225,0,.449,0,0.678,0,0.667-.006.657-0.587,0.888a3.514,3.514,0,0,0-2.363,3.3,3.444,3.444,0,0,0,1.738,3.234A18.376,18.376,0,0,0,14.01,15.78a3.177,3.177,0,0,1,.791.513,1.249,1.249,0,0,1-.258,2.092,2.384,2.384,0,0,1-1.393.2,5.8,5.8,0,0,1-2.124-.7c-0.392-.225-0.507-0.165-0.641.3-0.115.4-.217,0.811-0.319,1.218a0.63,0.63,0,0,0,.389.934,6.313,6.313,0,0,0,1.913.6c0.517,0.091.533,0.116,0.539,0.706,0,0.267,0,.537.006,0.8a0.459,0.459,0,0,0,.466.541c0.357,0.007.717,0.007,1.075,0a0.433,0.433,0,0,0,.443-0.509c0-.365.016-0.734,0-1.1a0.573,0.573,0,0,1,.456-0.66A3.588,3.588,0,0,0,17.234,19.4,3.94,3.94,0,0,0,16.147,13.722Z"/>
</svg>
