<svg xmlns="http://www.w3.org/2000/svg" xmlns:xlink="http://www.w3.org/1999/xlink" preserveAspectRatio="xMidYMid" width="11" height="16" viewBox="0 0 11 16">
  <defs>
    <style>
      .cls-1 {
        fill: #a3a8ac;
        fill-rule: evenodd;
      }
    </style>
  </defs>
  <path d="M10.889,5.380 L10.339,5.895 C10.265,5.964 10.181,5.998 10.085,5.998 C9.989,5.998 9.905,5.964 9.832,5.895 L5.500,1.846 L1.168,5.896 C1.095,5.964 1.010,5.999 0.915,5.999 C0.819,5.999 0.735,5.964 0.661,5.896 L0.110,5.380 C0.037,5.312 0.000,5.233 0.000,5.143 C0.000,5.054 0.037,4.975 0.110,4.906 L5.247,0.104 C5.320,0.035 5.404,0.001 5.500,0.001 C5.595,0.001 5.680,0.035 5.753,0.104 L10.889,4.906 C10.963,4.975 11.000,5.054 11.000,5.143 C11.000,5.233 10.963,5.312 10.889,5.380 ZM0.661,10.104 C0.735,10.035 0.819,10.001 0.915,10.001 C1.010,10.001 1.095,10.035 1.168,10.104 L5.500,14.154 L9.831,10.104 C9.905,10.035 9.989,10.001 10.085,10.001 C10.180,10.001 10.265,10.035 10.338,10.104 L10.889,10.619 C10.963,10.688 11.000,10.767 11.000,10.856 C11.000,10.946 10.963,11.025 10.889,11.093 L5.753,15.896 C5.680,15.964 5.595,15.998 5.500,15.998 C5.404,15.998 5.320,15.964 5.246,15.896 L0.110,11.093 C0.037,11.025 0.000,10.946 0.000,10.856 C0.000,10.767 0.037,10.688 0.110,10.619 L0.661,10.104 Z" class="cls-1"/>
</svg>
