<svg xmlns="http://www.w3.org/2000/svg" xmlns:xlink="http://www.w3.org/1999/xlink" preserveAspectRatio="xMidYMid" width="11" height="6" viewBox="0 0 11 6">
  <defs>
    <style>
      .cls-1 {
        fill: #a3a8ac;
        fill-rule: evenodd;
      }
    </style>
  </defs>
  <path d="M10.890,0.619 L10.339,0.104 C10.265,0.035 10.181,0.001 10.085,0.001 C9.990,0.001 9.905,0.035 9.832,0.104 L5.500,4.154 L1.168,0.104 C1.095,0.036 1.010,0.001 0.915,0.001 C0.819,0.001 0.735,0.036 0.661,0.104 L0.110,0.620 C0.037,0.688 0.000,0.767 0.000,0.857 C0.000,0.946 0.037,1.025 0.110,1.094 L5.246,5.896 C5.320,5.964 5.404,5.999 5.500,5.999 C5.595,5.999 5.680,5.964 5.753,5.896 L10.890,1.094 C10.963,1.025 11.000,0.946 11.000,0.857 C11.000,0.767 10.963,0.688 10.890,0.619 Z" class="cls-1"/>
</svg>
