<svg xmlns="http://www.w3.org/2000/svg" width="28" height="28" viewBox="0 0 28 28">
  <metadata><?xpacket begin="﻿" id="W5M0MpCehiHzreSzNTczkc9d"?>
<x:xmpmeta xmlns:x="adobe:ns:meta/" x:xmptk="Adobe XMP Core 5.6-c138 79.159824, 2016/09/14-01:09:01        ">
   <rdf:RDF xmlns:rdf="http://www.w3.org/1999/02/22-rdf-syntax-ns#">
      <rdf:Description rdf:about=""/>
   </rdf:RDF>
</x:xmpmeta>
                                                                                                    
                                                                                                    
                                                                                                    
                                                                                                    
                                                                                                    
                                                                                                    
                                                                                                    
                                                                                                    
                                                                                                    
                                                                                                    
                                                                                                    
                                                                                                    
                                                                                                    
                                                                                                    
                                                                                                    
                                                                                                    
                                                                                                    
                                                                                                    
                                                                                                    
                                                                                                    
                           
<?xpacket end="w"?></metadata>
<defs>
    <style>
      .cls-1 {
        fill: #608eb3;
        fill-rule: evenodd;
      }
    </style>
  </defs>
  <path class="cls-1" d="M20,6A14,14,0,1,1,6,20,14,14,0,0,1,20,6Zm5,13.266a0.753,0.753,0,0,1-.034.157,0.534,0.534,0,0,1-.026.056,0.519,0.519,0,0,1-.058.087c-0.008.01-.012,0.021-0.021,0.031s-0.011.006-.016,0.011a0.551,0.551,0,0,1-.152.111l-4.444,2.1a0.579,0.579,0,0,1-.491,0l-4.444-2.1L15.3,19.71a0.54,0.54,0,0,1-.048-0.031,0.553,0.553,0,0,1-.088-0.068c-0.006-.006-0.013-0.009-0.019-0.014s-0.013-.021-0.021-0.031a0.534,0.534,0,0,1-.058-0.087,0.52,0.52,0,0,1-.026-0.056A0.735,0.735,0,0,1,15,19.266c0-.008,0-0.016,0-0.024l0.02-.134a0.516,0.516,0,0,1,.066-0.148v0l4.444-6.71c0.008-.011.022-0.015,0.03-0.026a0.546,0.546,0,0,1,.878,0c0.008,0.011.023,0.014,0.03,0.026l4.444,6.711v0a0.52,0.52,0,0,1,.066.148,0.53,0.53,0,0,1,.008.053,0.5,0.5,0,0,1,.012.081C25,19.25,25,19.258,25,19.266ZM15.8,21.282L20,23.263l4.2-1.981a0.574,0.574,0,0,1,.659.121,0.513,0.513,0,0,1,.056.639l-4.444,6.71a0.569,0.569,0,0,1-.938,0l-4.444-6.71a0.513,0.513,0,0,1,.056-0.639A0.574,0.574,0,0,1,15.8,21.282Z" transform="translate(-6 -6)"/>
</svg>
