<svg xmlns="http://www.w3.org/2000/svg" width="28" height="28" viewBox="0 0 28 28">
  <metadata><?xpacket begin="﻿" id="W5M0MpCehiHzreSzNTczkc9d"?>
<x:xmpmeta xmlns:x="adobe:ns:meta/" x:xmptk="Adobe XMP Core 5.6-c138 79.159824, 2016/09/14-01:09:01        ">
   <rdf:RDF xmlns:rdf="http://www.w3.org/1999/02/22-rdf-syntax-ns#">
      <rdf:Description rdf:about=""/>
   </rdf:RDF>
</x:xmpmeta>
                                                                                                    
                                                                                                    
                                                                                                    
                                                                                                    
                                                                                                    
                                                                                                    
                                                                                                    
                                                                                                    
                                                                                                    
                                                                                                    
                                                                                                    
                                                                                                    
                                                                                                    
                                                                                                    
                                                                                                    
                                                                                                    
                                                                                                    
                                                                                                    
                                                                                                    
                                                                                                    
                           
<?xpacket end="w"?></metadata>
<defs>
    <style>
      .cls-1 {
        fill: #40c0e0;
        fill-rule: evenodd;
      }
    </style>
  </defs>
  <path class="cls-1" d="M20,6A14,14,0,1,1,6,20,14,14,0,0,1,20,6ZM19.176,25.424a0.77,0.77,0,0,1-.135-0.648l0.918-3.87a0.77,0.77,0,0,1,.6-0.594l2.972-.564V18.254l-1.941.366a0.745,0.745,0,0,1-.684-0.221,0.767,0.767,0,0,1-.189-0.7L22.065,12H18.334L16.5,19.138a0.747,0.747,0,0,1-.594.556L13,20.25v1.5l1.805-.343a0.728,0.728,0,0,1,.685.229,0.785,0.785,0,0,1,.181.709L14.211,28H26.24L27,25.713H19.77A0.753,0.753,0,0,1,19.176,25.424Z" transform="translate(-6 -6)"/>
</svg>
