<svg xmlns="http://www.w3.org/2000/svg" xmlns:xlink="http://www.w3.org/1999/xlink" preserveAspectRatio="xMidYMid" width="14" height="14" viewBox="0 0 14 14">
  <defs>
    <style>
      .cls-1 {
        fill: #c1c3c5;
        filter: url(#color-overlay-1);
        fill-rule: evenodd;
      }
    </style>

    <filter id="color-overlay-1" filterUnits="userSpaceOnUse">
      <feFlood flood-color="#c1c3c5"/>
      <feComposite operator="in" in2="SourceGraphic"/>
      <feBlend in2="SourceGraphic" result="solidFill"/>
    </filter>
  </defs>
  <path d="M9.734,8.531 C9.405,8.531 9.079,8.494 8.760,8.419 L7.773,9.406 L6.562,9.406 L6.562,10.937 L5.031,10.937 L5.031,12.469 L3.500,12.469 L3.500,14.000 L-0.000,14.000 L-0.000,10.820 L5.581,5.240 C5.506,4.921 5.469,4.595 5.469,4.266 C5.469,1.914 7.382,-0.000 9.734,-0.000 C12.086,-0.000 14.000,1.914 14.000,4.266 C14.000,6.618 12.086,8.531 9.734,8.531 ZM9.734,1.094 C7.985,1.094 6.562,2.517 6.562,4.266 C6.562,4.596 6.613,4.922 6.713,5.234 L6.815,5.552 L1.094,11.273 L1.094,12.906 L2.406,12.906 L2.406,11.375 L3.937,11.375 L3.937,9.844 L5.469,9.844 L5.469,8.312 L7.320,8.312 L8.448,7.185 L8.766,7.287 C9.078,7.387 9.404,7.437 9.734,7.437 C11.483,7.437 12.906,6.015 12.906,4.266 C12.906,2.517 11.483,1.094 9.734,1.094 ZM10.500,4.156 C10.017,4.156 9.625,3.764 9.625,3.281 C9.625,2.798 10.017,2.406 10.500,2.406 C10.983,2.406 11.375,2.798 11.375,3.281 C11.375,3.764 10.983,4.156 10.500,4.156 Z" class="cls-1"/>
</svg>
