<svg xmlns="http://www.w3.org/2000/svg" xmlns:xlink="http://www.w3.org/1999/xlink" preserveAspectRatio="xMidYMid" width="19" height="16" viewBox="0 0 19 16">
  <defs>
    <style>
      .cls-1 {
        fill: #3c8fdd;
        fill-rule: evenodd;
      }
    </style>
  </defs>
  <path d="M18.534,15.511 C18.224,15.838 17.852,16.001 17.416,16.001 L1.584,16.001 C1.148,16.001 0.776,15.838 0.465,15.511 C0.155,15.185 0.000,14.793 0.000,14.334 L0.000,1.666 C0.000,1.207 0.155,0.815 0.465,0.489 C0.776,0.162 1.148,-0.001 1.584,-0.001 L17.416,-0.001 C17.852,-0.001 18.224,0.162 18.534,0.489 C18.844,0.815 18.999,1.207 18.999,1.666 L18.999,14.334 C18.999,14.793 18.844,15.185 18.534,15.511 ZM17.733,1.666 C17.733,1.575 17.701,1.497 17.639,1.431 C17.576,1.365 17.502,1.332 17.416,1.332 L1.584,1.332 C1.498,1.332 1.424,1.365 1.361,1.431 C1.298,1.497 1.267,1.575 1.267,1.666 L1.267,3.999 L17.733,3.999 L17.733,1.666 ZM17.733,8.000 L1.267,8.000 L1.267,14.334 C1.267,14.425 1.298,14.502 1.361,14.569 C1.424,14.635 1.498,14.668 1.584,14.668 L17.416,14.668 C17.502,14.668 17.576,14.635 17.639,14.569 C17.701,14.503 17.733,14.425 17.733,14.334 L17.733,8.000 ZM6.333,12.001 L10.133,12.001 L10.133,13.334 L6.333,13.334 L6.333,12.001 ZM2.534,12.001 L5.067,12.001 L5.067,13.334 L2.534,13.334 L2.534,12.001 Z" class="cls-1"/>
</svg>
