<svg xmlns="http://www.w3.org/2000/svg" xmlns:xlink="http://www.w3.org/1999/xlink" preserveAspectRatio="xMidYMid" width="24" height="31" viewBox="0 0 24 31">
  <defs>
    <style>
      .cls-1 {
        fill: #a8beda;
        fill-rule: evenodd;
      }
    </style>
  </defs>
  <path d="M20.470,31.000 L3.529,31.000 C1.583,31.000 -0.000,29.370 -0.000,27.367 L-0.000,15.016 C-0.000,13.012 1.583,11.383 3.529,11.383 L5.645,11.383 L5.645,6.404 C5.645,2.873 8.495,-0.000 11.998,-0.000 C15.501,-0.000 18.351,2.873 18.351,6.404 L18.351,11.383 L20.470,11.383 C22.417,11.383 24.000,13.012 24.000,15.016 L24.000,27.367 C24.000,29.370 22.417,31.000 20.470,31.000 ZM15.998,6.404 C15.998,4.208 14.203,2.422 11.998,2.422 C9.792,2.422 7.998,4.208 7.998,6.404 L7.998,11.383 L15.998,11.383 L15.998,6.404 ZM21.647,15.016 C21.647,14.348 21.119,13.805 20.470,13.805 L3.529,13.805 C2.881,13.805 2.353,14.348 2.353,15.016 L2.353,27.367 C2.353,28.035 2.881,28.578 3.529,28.578 L20.470,28.578 C21.119,28.578 21.647,28.035 21.647,27.367 L21.647,15.016 ZM13.174,21.442 L13.174,24.098 C13.174,24.766 12.647,25.309 11.998,25.309 C11.348,25.309 10.821,24.766 10.821,24.098 L10.821,21.440 C10.221,21.041 9.824,20.347 9.824,19.557 C9.824,18.319 10.798,17.316 12.000,17.316 C13.202,17.316 14.176,18.319 14.176,19.557 C14.176,20.349 13.777,21.044 13.174,21.442 Z" class="cls-1"/>
</svg>
