<svg xmlns="http://www.w3.org/2000/svg" xmlns:xlink="http://www.w3.org/1999/xlink" preserveAspectRatio="xMidYMid" width="14.969" height="15" viewBox="0 0 14.969 15">
  <defs>
    <style>
      .cls-1 {
        fill: #c4c6c8;
        filter: url(#color-overlay-1);
        fill-rule: evenodd;
      }
    </style>

    <filter id="color-overlay-1" filterUnits="userSpaceOnUse">
      <feFlood flood-color="#c1c3c5"/>
      <feComposite operator="in" in2="SourceGraphic"/>
      <feBlend in2="SourceGraphic" result="solidFill"/>
    </filter>
  </defs>
  <path d="M14.579,11.050 L12.719,9.188 C12.206,8.674 11.371,8.674 10.858,9.188 L10.013,10.034 C9.624,10.423 8.992,10.423 8.604,10.034 L4.939,6.362 C4.549,5.972 4.549,5.341 4.939,4.951 C5.075,4.814 5.466,4.423 5.784,4.104 C6.295,3.593 6.302,2.760 5.784,2.241 L3.924,0.385 C3.411,-0.128 2.576,-0.128 2.065,0.384 C1.682,0.764 1.559,0.886 1.387,1.057 C-0.462,2.908 -0.462,5.921 1.387,7.773 L7.194,13.590 C9.048,15.446 12.049,15.446 13.902,13.590 L14.579,12.912 C15.092,12.399 15.092,11.563 14.579,11.050 ZM2.684,1.006 C2.855,0.835 3.133,0.835 3.304,1.007 L5.164,2.863 C5.335,3.034 5.335,3.312 5.164,3.483 L4.854,3.794 L2.375,1.312 L2.684,1.006 ZM7.815,12.969 L2.007,7.152 C0.576,5.719 0.498,3.470 1.765,1.943 L4.237,4.418 C3.587,5.155 3.614,6.278 4.318,6.983 L7.983,10.655 C7.983,10.655 7.983,10.655 7.983,10.655 C8.687,11.359 9.808,11.388 10.545,10.737 L13.017,13.211 C11.497,14.478 9.255,14.411 7.815,12.969 ZM13.959,12.292 L13.649,12.602 L11.169,10.119 L11.479,9.808 C11.650,9.637 11.928,9.637 12.099,9.808 L13.959,11.671 C14.130,11.842 14.130,12.120 13.959,12.292 Z" class="cls-1"/>
</svg>
