<svg xmlns="http://www.w3.org/2000/svg" xmlns:xlink="http://www.w3.org/1999/xlink" preserveAspectRatio="xMidYMid" width="13" height="13" viewBox="0 0 13 13">
  <defs>
    <style>
      .cls-1 {
        fill: #8392a0;
        fill-rule: evenodd;
      }
    </style>
  </defs>
  <path d="M11.819,13.001 L11.819,11.819 L13.002,11.819 L13.002,13.001 L11.819,13.001 ZM9.455,9.455 L8.273,9.455 L8.273,13.001 L7.091,13.001 L7.091,7.091 L10.637,7.091 L10.637,8.273 L11.819,8.273 L11.819,7.091 L13.002,7.091 L13.002,7.091 L13.002,10.637 L9.455,10.637 L9.455,9.455 ZM7.091,-0.002 L13.002,-0.002 L13.002,5.909 L7.091,5.909 L7.091,-0.002 ZM8.273,4.727 L11.819,4.727 L11.819,1.180 L8.273,1.180 L8.273,4.727 ZM9.455,2.363 L10.637,2.363 L10.637,3.545 L9.455,3.545 L9.455,2.363 ZM-0.002,7.091 L5.909,7.091 L5.909,13.001 L-0.002,13.001 L-0.002,7.091 ZM1.180,11.810 L4.727,11.810 L4.727,8.273 L1.180,8.273 L1.180,11.810 ZM2.363,9.455 L3.545,9.455 L3.545,10.637 L2.363,10.637 L2.363,9.455 ZM-0.002,-0.002 L5.909,-0.002 L5.909,5.909 L-0.002,5.909 L-0.002,-0.002 ZM1.180,4.727 L4.727,4.727 L4.727,1.180 L1.180,1.180 L1.180,4.727 ZM2.363,2.363 L3.545,2.363 L3.545,3.545 L2.363,3.545 L2.363,2.363 ZM10.637,13.001 L9.455,13.001 L9.455,11.819 L10.637,11.819 L10.637,13.001 Z" class="cls-1"/>
</svg>
