<svg xmlns="http://www.w3.org/2000/svg" xmlns:xlink="http://www.w3.org/1999/xlink" preserveAspectRatio="xMidYMid" width="13" height="13" viewBox="0 0 13 13">
  <defs>
    <style>
      .cls-1 {
        fill: #cfd8e2;
        fill-rule: evenodd;
      }
    </style>
  </defs>
  <path d="M11.265,0.098 L0.777,4.444 C0.336,4.627 0.039,5.037 0.005,5.513 C-0.030,5.990 0.204,6.438 0.614,6.681 L3.858,8.605 L7.090,5.372 C7.239,5.224 7.480,5.224 7.628,5.372 C7.777,5.520 7.776,5.761 7.628,5.910 L4.396,9.142 L6.319,12.386 C6.563,12.797 7.010,13.030 7.487,12.995 C7.964,12.961 8.374,12.664 8.556,12.223 L12.902,1.735 C13.100,1.257 12.996,0.734 12.631,0.369 C12.266,0.004 11.743,-0.099 11.265,0.098 Z" class="cls-1"/>
</svg>
