<svg xmlns="http://www.w3.org/2000/svg" xmlns:xlink="http://www.w3.org/1999/xlink" preserveAspectRatio="xMidYMid" width="17" height="16" viewBox="0 0 17 16">
  <defs>
    <style>
      .cls-1 {
        fill: #92a8c0;
        fill-rule: evenodd;
      }
    </style>
  </defs>
  <path d="M13.843,16.000 L3.157,16.000 C1.418,16.000 -0.000,14.564 -0.000,12.794 L-0.000,8.222 C-0.000,7.947 0.216,7.727 0.487,7.727 C0.758,7.727 0.974,7.947 0.974,8.222 L0.974,12.794 C0.974,14.014 1.952,15.011 3.157,15.011 L13.843,15.011 C15.044,15.011 16.026,14.018 16.026,12.794 L16.026,8.295 C16.026,8.020 16.242,7.800 16.513,7.800 C16.784,7.800 17.000,8.024 17.000,8.295 L17.000,12.794 C17.000,14.560 15.586,16.000 13.843,16.000 ZM11.595,4.136 C11.473,4.136 11.346,4.085 11.253,3.990 L8.987,1.689 L8.987,11.724 C8.987,11.999 8.770,12.219 8.500,12.219 C8.229,12.219 8.013,11.999 8.013,11.724 L8.013,1.689 L5.747,3.990 C5.560,4.180 5.249,4.180 5.062,3.990 C4.870,3.796 4.870,3.484 5.062,3.290 L8.157,0.146 C8.247,0.051 8.370,-0.000 8.500,-0.000 C8.626,-0.000 8.752,0.055 8.843,0.146 L11.938,3.290 C12.129,3.484 12.129,3.796 11.938,3.990 C11.844,4.089 11.722,4.136 11.595,4.136 Z" class="cls-1"/>
</svg>
