<svg xmlns="http://www.w3.org/2000/svg" xmlns:xlink="http://www.w3.org/1999/xlink" preserveAspectRatio="xMidYMid" width="20.969" height="18" viewBox="0 0 20.969 18">
  <defs>
    <style>
      .cls-1 {
        fill: #3c8fdd;
        fill-rule: evenodd;
      }
    </style>
  </defs>
  <path d="M11.355,1.324 L8.468,2.967 L3.409,0.013 L-0.011,5.701 L1.801,6.760 L1.726,6.803 L1.726,17.995 L2.547,17.995 L2.556,18.011 L2.587,17.995 L20.122,17.995 L20.153,18.011 L20.162,17.995 L20.983,17.995 L20.983,6.803 L11.355,1.324 ZM11.355,2.600 L19.307,7.124 L12.733,10.865 L15.139,6.861 L9.575,3.612 L11.355,2.600 ZM5.586,5.127 C6.233,4.051 7.641,3.696 8.734,4.333 C9.826,4.971 10.187,6.360 9.540,7.436 C8.893,8.512 7.484,8.868 6.391,8.230 C5.300,7.593 4.940,6.204 5.586,5.127 ZM2.848,8.083 L10.509,12.443 L2.848,16.593 L2.848,8.083 ZM4.626,16.890 L11.353,13.245 L18.083,16.890 L4.626,16.890 ZM19.861,16.594 L12.200,12.443 L19.861,8.083 L19.861,16.594 ZM6.533,7.449 L6.618,7.502 L6.439,7.801 L6.748,7.982 L6.927,7.682 L7.022,7.736 C7.347,7.926 7.608,8.001 7.807,7.964 C8.005,7.925 8.189,7.766 8.359,7.482 C8.517,7.220 8.566,7.005 8.506,6.837 C8.446,6.668 8.251,6.475 7.922,6.258 L7.822,6.195 L8.224,5.526 L8.296,5.567 C8.548,5.715 8.613,5.886 8.494,6.085 L8.467,6.135 L8.910,6.393 L8.947,6.332 C9.104,6.070 9.150,5.853 9.081,5.683 C9.013,5.512 8.807,5.326 8.464,5.126 L8.620,4.866 L8.312,4.686 L8.155,4.946 C7.796,4.736 7.520,4.642 7.326,4.666 C7.133,4.690 6.954,4.838 6.790,5.113 C6.620,5.396 6.571,5.627 6.640,5.806 C6.711,5.985 6.926,6.182 7.286,6.392 L6.851,7.117 L6.784,7.076 C6.599,6.968 6.494,6.874 6.470,6.796 C6.445,6.716 6.482,6.595 6.581,6.430 L6.609,6.383 L6.151,6.116 L6.094,6.207 C5.932,6.476 5.883,6.704 5.950,6.890 C6.016,7.074 6.211,7.262 6.533,7.449 ZM7.251,5.387 C7.379,5.175 7.578,5.147 7.850,5.307 L7.917,5.342 L7.523,5.999 C7.481,5.971 7.459,5.956 7.457,5.955 C7.186,5.799 7.118,5.607 7.251,5.387 ZM7.586,6.588 C7.793,6.710 7.917,6.810 7.955,6.892 C7.995,6.973 7.974,7.082 7.892,7.218 C7.742,7.468 7.520,7.506 7.226,7.334 L7.160,7.296 L7.586,6.588 Z" class="cls-1"/>
</svg>
