<svg xmlns="http://www.w3.org/2000/svg" width="28" height="28" viewBox="0 0 28 28">
  <metadata><?xpacket begin="﻿" id="W5M0MpCehiHzreSzNTczkc9d"?>
<x:xmpmeta xmlns:x="adobe:ns:meta/" x:xmptk="Adobe XMP Core 5.6-c138 79.159824, 2016/09/14-01:09:01        ">
   <rdf:RDF xmlns:rdf="http://www.w3.org/1999/02/22-rdf-syntax-ns#">
      <rdf:Description rdf:about=""/>
   </rdf:RDF>
</x:xmpmeta>
                                                                                                    
                                                                                                    
                                                                                                    
                                                                                                    
                                                                                                    
                                                                                                    
                                                                                                    
                                                                                                    
                                                                                                    
                                                                                                    
                                                                                                    
                                                                                                    
                                                                                                    
                                                                                                    
                                                                                                    
                                                                                                    
                                                                                                    
                                                                                                    
                                                                                                    
                                                                                                    
                           
<?xpacket end="w"?></metadata>
<defs>
    <style>
      .cls-1 {
        fill: #4093e0;
        fill-rule: evenodd;
      }
    </style>
  </defs>
  <path class="cls-1" d="M20,6A14,14,0,1,1,6,20,14,14,0,0,1,20,6Zm3.375,12.656c-0.047,0-.091-0.011-0.138-0.013a1.226,1.226,0,0,0-1.282,1.109c-0.294,1.27,1.261,1.612,1.261,1.612h0.005c0.078,0,.152-0.022.232-0.022a3.335,3.335,0,1,1-3.547,3.328,3.166,3.166,0,0,1,.59-1.833,1.427,1.427,0,0,0-.8-1.723,1.775,1.775,0,0,0-2.194.741c-0.015.021-.031,0.041-0.047,0.062a2.2,2.2,0,0,0-.149.251l0.03-.116a3.618,3.618,0,0,1-2.79,1.289A3.436,3.436,0,0,1,11,20.031a3.436,3.436,0,0,1,3.547-3.312,3.565,3.565,0,0,1,3.156,1.83l0-.1a1.529,1.529,0,0,0,2.125.31c0.781-.254.6-1.55,0.6-1.55V17.2a3.161,3.161,0,0,1-.615-1.868,3.571,3.571,0,0,1,7.125,0A3.451,3.451,0,0,1,23.375,18.656Z" transform="translate(-6 -6)"/>
</svg>
